<svg xmlns="http://www.w3.org/2000/svg" width="266.3" height="251.6" viewBox="0 0 266.3 251.6"><g id="Paper"><circle cx="57.2" cy="92.6" r="35.5" fill="#f9f9fa"/><circle cx="164.7" cy="92.6" r="35.5" fill="#f9f9fa"/></g><g id="Layer_1" data-name="Layer 1"><path d="M64.1,179.3s-29.9,37.4-26.3,68.2h0l5.6,1.6,13.8-1-5.5.4-8.3.6,31.7-2.4,67.1,2.4h19.5l9,1.4,11.7-1.4-5-24.5-15.7-41.2" fill="#9bd08d"/><path d="M69.5,169.5S41.2,199,35.8,249.1h70" fill="none" stroke="#231f20" stroke-miterlimit="10" stroke-width="5"/><path d="M148.7,169.5s28.3,32.1,33.7,79.6H105.8" fill="none" stroke="#231f20" stroke-miterlimit="10" stroke-width="5"/><path d="M246,157.1c-.2-.7-65.1,12.9-71.6,5,0,0-55.3,31.4-104.9,7.4,0,0-15.3,32.2,51.5,32.1,0,0,20.6-5.8,26.4-13,0,0,43.2,21,79.1,14.6l28.9-13.7Z" fill="#d24c9b"/><path d="M109.9,4.4,67.5,53.9S39.4,49.2,22.2,77.1L95.1,94.5S73,169.1,21,106.9L2,125.1s45.4,48.3,110.3,54.4c0,0,62.8-4.8,108.1-57.3l-19.7-18.1s-13.6,29-39,25.8-36.5-24.8-34.9-35.4c0,0,66.5-18.6,71.7-16.4,0,0-3.1-16.1-21.5-22.1,0,0-13-4.4-22.2-1.2Z" fill="#9bd08d"/><path d="M238.9,169.5s21.1-.6,22.7-5.3" fill="none" stroke="#231f20" stroke-miterlimit="10" stroke-width="5"/><path d="M241.3,183.4s21.1-.6,22.7-5.3" fill="none" stroke="#231f20" stroke-miterlimit="10" stroke-width="5"/><circle cx="57.2" cy="91.9" r="38" fill="none" stroke="#231f20" stroke-miterlimit="10" stroke-width="10"/><path d="M95.2,94.5s-57-16.9-73.4-16.4S7.6,63.2,7.6,63.2" fill="none" stroke="#231f20" stroke-miterlimit="10" stroke-width="3"/><path d="M69.6,94.5a12.4,12.4,0,1,1-24.8,0A11.1,11.1,0,0,1,57.2,83.2C64.4,84,69.6,87.7,69.6,94.5Z" fill="#231f20"/><circle cx="164.7" cy="91.9" r="38" fill="none" stroke="#231f20" stroke-miterlimit="10" stroke-width="10"/><path d="M126.7,94.5s57-16.9,73.3-16.4,14.2-14.9,14.2-14.9" fill="none" stroke="#231f20" stroke-miterlimit="10" stroke-width="3"/><path d="M152.3,94.5a12.4,12.4,0,1,0,24.7,0c0-6.8-6.5-13-12.3-11.6S152.3,87.7,152.3,94.5Z" fill="#231f20"/><path d="M200.8,103.5l19.6,21.6s-55.7,54.4-109.2,54.4a81.8,81.8,0,0,1-9.8-.6" fill="none" stroke="#231f20" stroke-miterlimit="10" stroke-width="4"/><path d="M65,54.8C88.4,27.9,108.5,4.2,109.8,2.9l46.9,51.9" fill="none" stroke="#231f20" stroke-miterlimit="10" stroke-width="4"/><path d="M101.4,178.9C50.5,173.2,0,126.1,2.1,124.1c5.2-5.1,11.7-12,19.1-20" fill="none" stroke="#231f20" stroke-miterlimit="10" stroke-width="4"/><path d="M135.6,141.5c0,7.6-10.9,13.8-24.4,13.8s-24.3-6.2-24.3-13.8" fill="none" stroke="#231f20" stroke-miterlimit="10" stroke-width="4"/><path d="M150.9,170.9a15.1,15.1,0,0,1,1.4,6.2c0,13.5-19,24.5-42.4,24.5s-42.4-11-42.4-24.5a15.7,15.7,0,0,1,2-7.6" fill="none" stroke="#231f20" stroke-miterlimit="10" stroke-width="4"/><path d="M147.4,188.6s57.7,31.1,108,2.6l-9.9-35.9s-64.7,14.4-73.3,5.4" fill="none" stroke="#231f20" stroke-miterlimit="10" stroke-width="4"/><line x1="95.2" y1="98.2" x2="126.8" y2="98.2" fill="none" stroke="#231f20" stroke-miterlimit="10" stroke-width="8"/></g></svg>