<svg height="251.6" viewBox="0 0 266.3 251.6" width="266.3" xmlns="http://www.w3.org/2000/svg"><circle cx="57.2" cy="92.6" fill="#f9f9fa" r="35.5"/><circle cx="164.7" cy="92.6" fill="#f9f9fa" r="35.5"/><path d="m64.1 179.3s-29.9 37.4-26.3 68.2l5.6 1.6 13.8-1-5.5.4-8.3.6 31.7-2.4 67.1 2.4h19.5l9 1.4 11.7-1.4-5-24.5-15.7-41.2" fill="#9bd08d"/><path d="m69.5 169.5s-28.3 29.5-33.7 79.6h70" fill="none" stroke="#231f20" stroke-miterlimit="10" stroke-width="5"/><path d="m148.7 169.5s28.3 32.1 33.7 79.6h-76.6" fill="none" stroke="#231f20" stroke-miterlimit="10" stroke-width="5"/><path d="m246 157.1c-.2-.7-65.1 12.9-71.6 5 0 0-55.3 31.4-104.9 7.4 0 0-15.3 32.2 51.5 32.1 0 0 20.6-5.8 26.4-13 0 0 43.2 21 79.1 14.6l28.9-13.7z" fill="#d24c9b"/><path d="m109.9 4.4-42.4 49.5s-28.1-4.7-45.3 23.2l72.9 17.4s-22.1 74.6-74.1 12.4l-19 18.2s45.4 48.3 110.3 54.4c0 0 62.8-4.8 108.1-57.3l-19.7-18.1s-13.6 29-39 25.8-36.5-24.8-34.9-35.4c0 0 66.5-18.6 71.7-16.4 0 0-3.1-16.1-21.5-22.1 0 0-13-4.4-22.2-1.2z" fill="#9bd08d"/><path d="m238.9 169.5s21.1-.6 22.7-5.3" fill="none" stroke="#231f20" stroke-miterlimit="10" stroke-width="5"/><path d="m241.3 183.4s21.1-.6 22.7-5.3" fill="none" stroke="#231f20" stroke-miterlimit="10" stroke-width="5"/><circle cx="57.2" cy="91.9" fill="none" r="38" stroke="#231f20" stroke-miterlimit="10" stroke-width="10"/><path d="m95.2 94.5s-57-16.9-73.4-16.4-14.2-14.9-14.2-14.9" fill="none" stroke="#231f20" stroke-miterlimit="10" stroke-width="3"/><path d="m69.6 94.5a12.4 12.4 0 1 1 -24.8 0 11.1 11.1 0 0 1 12.4-11.3c7.2.8 12.4 4.5 12.4 11.3z" fill="#231f20"/><circle cx="164.7" cy="91.9" fill="none" r="38" stroke="#231f20" stroke-miterlimit="10" stroke-width="10"/><path d="m126.7 94.5s57-16.9 73.3-16.4 14.2-14.9 14.2-14.9" fill="none" stroke="#231f20" stroke-miterlimit="10" stroke-width="3"/><path d="m152.3 94.5a12.4 12.4 0 1 0 24.7 0c0-6.8-6.5-13-12.3-11.6s-12.4 4.8-12.4 11.6z" fill="#231f20"/><g fill="none" stroke="#231f20" stroke-miterlimit="10"><path d="m200.8 103.5 19.6 21.6s-55.7 54.4-109.2 54.4a81.8 81.8 0 0 1 -9.8-.6" stroke-width="4"/><path d="m65 54.8c23.4-26.9 43.5-50.6 44.8-51.9l46.9 51.9" stroke-width="4"/><path d="m101.4 178.9c-50.9-5.7-101.4-52.8-99.3-54.8 5.2-5.1 11.7-12 19.1-20" stroke-width="4"/><path d="m135.6 141.5c0 7.6-10.9 13.8-24.4 13.8s-24.3-6.2-24.3-13.8" stroke-width="4"/><path d="m150.9 170.9a15.1 15.1 0 0 1 1.4 6.2c0 13.5-19 24.5-42.4 24.5s-42.4-11-42.4-24.5a15.7 15.7 0 0 1 2-7.6" stroke-width="4"/><path d="m147.4 188.6s57.7 31.1 108 2.6l-9.9-35.9s-64.7 14.4-73.3 5.4" stroke-width="4"/><path d="m95.2 98.2h31.6" stroke-width="8"/></g></svg>