<svg xmlns="http://www.w3.org/2000/svg" viewBox="0 0 297.56 294.45" width="297.56" height="294.45"><defs><style>.cls-1{fill:#9bd08d}.cls-2,.cls-4,.cls-5,.cls-7,.cls-8{fill:none;stroke:#231f20;stroke-miterlimit:10}.cls-2{stroke-width:5px}.cls-3{fill:#d24c9b}.cls-4{stroke-width:10px}.cls-5{stroke-width:3px}.cls-6{fill:#231f20}.cls-7{stroke-width:4px}.cls-8{stroke-width:8px}</style></defs><g id="Layer_2"><g id="Layer_3"><path d="M46.87 185.56s32-20.23-8.13-37.16S-2.35 182 4.26 189.15s3.05 30.18 56.85 31.75l-2 32-14.41 6.73 11.66 5.14-2.77 7.52h172.49l-2.37-9.1 10.16-3.56-13.51-9.89s6.95-31.28-18.78-32.85-171.72 12.86-154.71-31.33z" class="cls-1"/><path d="M95.3 179.26S65.47 239.87 69 270.72l-9.37 17.41L76 282.86l12.37 8.44 10.84-9.5h17.29l-10.19-11.89 67.1 2.4-6.61 7.6 14 1.89 10.84 9.5 12.36-8.44 16.38 5.27-6.74-24.53-20.69-80.2" class="cls-1"/></g><path d="M100.78 169.49s-33.73 55.34-33.73 102.82h70" class="cls-2"/><path d="M71 259.65l-3.04 19.21 38.65-2.6-5.83-16.61H71z" class="cls-1"/><path d="M179.89 169.49s33.73 55.34 33.73 102.82h-76.55" class="cls-2"/><path d="M277.22 157.11c-.21-.74-65.14 12.87-71.59 5 0 0-55.3 31.46-104.85 7.42 0 0-15.37 32.23 51.46 32.14 0 0 20.58-5.83 26.38-13.07 0 0 43.24 21 79.11 14.66l28.88-13.73z" class="cls-3"/><path d="M141.11 4.35L98.7 53.93s-28.06-4.77-45.28 23.2l72.87 17.42s-22.05 74.59-74 12.37l-19.06 18.22s45.42 48.27 110.3 54.33c0 0 62.77-4.75 108.13-57.23l-19.78-18.18s-13.55 29-38.95 25.83S156.42 105.1 158 94.55c0 0 66.48-18.7 71.75-16.47 0 0-3.18-16-21.5-22.08 0 0-13.05-4.36-22.28-1.24zm32.63 253.87l-3.04 19.21 40.76 1.24-3.19-23.77-34.53 3.32z" class="cls-1"/><path d="M109.77 244.35s-4.74 28-3.16 28 7.91 9.49 7.91 9.49H99.25l-10.84 9.5L76 282.86l-16.38 5.27 7.39-15.82m103.24-27.96s4.75 28 3.16 28-7.91 9.49-7.91 9.49h15.27l10.84 9.5 12.39-8.48 16.38 5.27-7.38-15.82m-146.82.2l-15.25 2.11 3.17-9.89L40.88 261 57 251.25c-.39-35.21 21.41-37.17 21.41-37.17m123.17 0s21.8 2 21.4 37.17l16.16 9.75-13.21 3.72 3.16 9.89-15.25-2.11m56.29-103.01s21.09-.57 22.68-5.31M272.5 183.4s21.1-.57 22.69-5.31m-250.48 9.25c0 30 35.86 24.82 35.86 24.82M63.66 224c0 .94-40.78-6.09-53.82-24.07" class="cls-2"/><path d="M12.42 203.22C8.19 197.67 1 190.81 2.78 169a25.46 25.46 0 0 1 25.85-23.4c14.28 0 30.49 5.8 30.49 23.46 0 9.86-6.25 16.47-14.41 20.06m0 .03s-27.35-.68-16.93-21" class="cls-2"/></g><g id="Layer_1"><circle cx="88.41" cy="91.91" r="37.98" class="cls-4"/><path d="M126.39 94.55s-57-17-73.35-16.47-14.21-14.92-14.21-14.92" class="cls-5"/><path d="M100.78 94.55a12.37 12.37 0 0 1-24.74 0 11.11 11.11 0 0 1 12.37-11.34c7.22.79 12.37 4.51 12.37 11.34z" class="cls-6"/><circle cx="195.9" cy="91.91" r="37.98" class="cls-4"/><path d="M157.92 94.55s57-17 73.35-16.47 14.21-14.92 14.21-14.92" class="cls-5"/><path d="M183.52 94.55a12.38 12.38 0 0 0 24.75 0c0-6.83-6.53-13.09-12.37-11.64-6.42 1.6-12.38 4.81-12.38 11.64z" class="cls-6"/><path d="M232.07 103.49l19.59 21.65s-55.76 54.33-109.21 54.33a87.33 87.33 0 0 1-9.81-.56M96.28 54.75C119.64 27.91 139.73 4.2 141 2.9l47 51.86m-55.36 124.15c-50.93-5.69-101.37-52.84-99.35-54.82 5.2-5.1 11.79-12 19.14-20m114.37 37.4c0 7.63-10.9 13.82-24.35 13.82s-24.35-6.19-24.35-13.82" class="cls-7"/><path d="M182.18 170.94a15 15 0 0 1 1.34 6.16c0 13.54-19 24.53-42.41 24.53s-42.41-11-42.41-24.53a15.36 15.36 0 0 1 2.08-7.61" class="cls-7"/><path d="M178.61 188.56s57.76 31.13 108 2.65l-9.89-35.9s-64.69 14.36-73.29 5.35" class="cls-7"/><path d="M126.39 98.24h31.63" class="cls-8"/></g></svg>