<svg id="_100_" data-name="100%" xmlns="http://www.w3.org/2000/svg" width="1200" height="800" viewBox="0 0 1200 800"><polygon points="275.2 402.9 395.2 416 350.1 461.8 392.4 524.9 289.1 590.1 217.6 468 275.2 402.9" fill="#f5333f"/><polygon points="788 422 919 370.2 1001.6 479.6 867 666.9 793.3 533.6 839.3 486 788 422" fill="#f5333f"/><path d="M778.6,544l30.7,56.8s-60.4,55.4,11.9,104l-85.3,47.3H568.2s64.8-76.4,127.5-35l65.2-99.4-5.5-29.5s-78.9,12.9-88.6-23.2Z" fill="none" stroke="#001689" stroke-miterlimit="10" stroke-width="11.08"/><path d="M783.4,655.1l-64.6,65.4s-22.4,25.8,17.1,31.6l85.3-47.3s-38.5-33.2-34.8-49a5.3,5.3,0,0,0,.1-2.5C786.2,652.7,785.4,652.9,783.4,655.1Z" fill="#001689"/><path d="M391.4,544l-28.6,18.1s30.9,36.6-3.7,74.1c-8.8,9.5-21.5,14.8-40.9,23.7l53.4,92.2H545.3s-40.8-58.2-113.8-40.6l-37-102.8,10.4-32.1s56.2,26.7,79-14.9Z" fill="none" stroke="#001689" stroke-miterlimit="10" stroke-width="11.08"/><path d="M372.9,623l32.9,91.1s5.3,26.6-31.9,33.7l-56-88.4s42-19.5,44.8-35.4C362.9,622.7,370.9,617.2,372.9,623Z" fill="#001689"/><circle cx="308.1" cy="596.7" r="61.7" fill="#fff"/><circle cx="852.6" cy="650.6" r="61.7" fill="#fff"/><circle cx="308.1" cy="596.7" r="44.7" fill="none" stroke="#001689" stroke-miterlimit="10" stroke-width="14.78"/><circle cx="308.1" cy="596.7" r="16.3" fill="none" stroke="#001689" stroke-miterlimit="10" stroke-width="5.4"/><circle cx="325.7" cy="617.7" r="5.3" fill="#001689"/><circle cx="326.2" cy="575.1" r="5.3" fill="#001689"/><circle cx="288.4" cy="617.7" r="5.3" fill="#001689"/><circle cx="288.9" cy="575.1" r="5.3" fill="#001689"/><circle cx="852.6" cy="650.6" r="44.7" fill="none" stroke="#001689" stroke-miterlimit="10" stroke-width="14.78"/><circle cx="852.6" cy="650.6" r="16.3" fill="none" stroke="#001689" stroke-miterlimit="10" stroke-width="5.4"/><circle cx="870.2" cy="671.6" r="5.3" fill="#001689"/><circle cx="870.7" cy="628.9" r="5.3" fill="#001689"/><circle cx="832.9" cy="671.6" r="5.3" fill="#001689"/><circle cx="833.4" cy="628.9" r="5.3" fill="#001689"/><path d="M426.6,550.8C464.4,478.1,554.9,471,581.1,471c43.5,0,113.6,9.1,148.4,81" fill="none" stroke="#001689" stroke-miterlimit="10" stroke-width="16.68"/><path d="M555.9,479.6s12.5,30.2-2,34.4l-36.4,5.7,39,15.1s55.1-82.2,43.9-5.2l49.7-4.2-64,33.3s7.8,16.4,6.8,19.5L560.1,567s-31.7,31.8,5.2,29.7l-29.6,15.7s7.4,52.2-14.6,5.3c0,0-23.2-5.3-32.4-9.5a4.4,4.4,0,0,0-5.8,2.1c-5.3,11.3-16.2,41.7,7.5,61.3l17.2-12,16.6,2.6-15.1,12s68.2-27.1,36.2,43.7L481,699.1l-11.4-32.8s-19.8-34.3-34.8-37.4c-9.4-1.9,0-11.2,0-11.2s2.3-32-8.2-30.9" fill="none" stroke="#001689" stroke-miterlimit="10" stroke-width="5.54"/><polyline points="467.5 486 426.6 425.7 705 456.6 760.5 438.9 741.5 524.9" fill="none" stroke="#001689" stroke-miterlimit="10" stroke-width="14.78"/><line x1="691" y1="503.3" x2="704" y2="456.9" fill="none" stroke="#001689" stroke-miterlimit="10" stroke-width="14.78"/><path d="M567,172.9l20.3,79.2s-35.5-2.8-49-11.2l-40-64S540.6,194.4,567,172.9Z" fill="none" stroke="#001689" stroke-miterlimit="10" stroke-width="10.59"/><path d="M576.7,170.4l20.4,79.2s29.8-19.6,37.5-33.5l4.2-75.4S616.8,177.3,576.7,170.4Z" fill="none" stroke="#001689" stroke-miterlimit="10" stroke-width="10.59"/><path d="M641.3,235c-13.1,14.2-45.5,37.1-45.5,37.1h-.3s-5.9-.8-14.2-2.2l-5.7,154.4,129.9,14.2,63.9-21.2,8.6-123Zm46.1,155.3-74-7.9,2.8-75,81.3,15.7Z" fill="#f5333f"/><path d="M521.6,244,406,278.7l1.1,127.2,155.5,17,5.7-155.4c-14.5-2.8-31-6.9-38.7-11.7Zm.1,130.4-71.2-7.8-.5-58.2,74.3-5.1Z" fill="#f5333f"/><path d="M559.2,157.1l-57.1-.9S535.1,187,559.2,157.1Z" fill="none" stroke="#001689" stroke-miterlimit="10" stroke-width="5.38"/><path d="M576.9,152.6,629,121.3S619.2,166.5,576.9,152.6Z" fill="none" stroke="#001689" stroke-miterlimit="10" stroke-width="5.38"/><polygon points="565.7 147.2 585.9 106.3 554.4 38.1 518.2 50 527.4 125.6 565.7 147.2" fill="none" stroke="#001689" stroke-miterlimit="10" stroke-width="5.85"/><line x1="521.4" y1="71.1" x2="561.8" y2="57.8" fill="none" stroke="#001689" stroke-miterlimit="10" stroke-width="5.85"/><line x1="525" y1="100.6" x2="575.3" y2="84" fill="none" stroke="#001689" stroke-miterlimit="10" stroke-width="5.85"/><line x1="529.8" y1="127" x2="585.1" y2="108.7" fill="none" stroke="#001689" stroke-miterlimit="10" stroke-width="5.85"/><polygon points="573.1 56.9 599.6 106.8 583.4 138.9 662.4 88.8 641.6 67.5 611 70.6 593.4 56.7 573.1 56.9" fill="#001689"/><polygon points="511.9 74.1 516.2 130.5 547 148.9 454.5 148.8 459.4 117.8 487.2 106 494.6 84.8 511.9 74.1" fill="#001689"/><polygon points="711 5.2 747 50.3 743.9 139.8 768.2 172.9 740.6 263.2 651.7 225.8 656.1 140.1 695.6 114.8 711 5.2" fill="#001689"/><polygon points="354.2 88.1 368.8 127 342.4 208.7 393.6 279 395.2 403.6 275.9 391.8 237.7 239.3 354.2 88.1" fill="#f5333f"/><polygon points="781.9 414.1 915.6 361.4 940.1 222.9 795.7 60.1 788 100.6 833.4 195.2 789.1 295.2 781.9 414.1" fill="#f5333f"/><path d="M456.3,183.1l-6.7,1.8,1,3.8,8.8-2.4Z" fill="#001689"/><polygon points="478 181.1 477 177.3 469.9 179.3 472.1 182.7 478 181.1" fill="#001689"/><path d="M469.9,179.3l-13.6,3.8,3.1,3.2,12.7-3.6Z" fill="#001689"/><path d="M475.6,167.5l-36.2-6.3L392.8,40.4,367.4,84.8l24.3,88.1-12.8,36.5L416,266.9,516.7,235ZM420.7,257l-32.1-47.6c14.9-13.3,54.4,40.9,54.4,40.9Zm51.2-31-1.1-3.8,10.7-3c-1.5-3.3-3.1-6.5-4.8-9.5L464.9,213l-1.1-3.8,10.9-3c-1.9-3-3.8-5.9-5.7-8.5l-11.3,3.2-1.1-3.8,9.8-2.7a85.3,85.3,0,0,0-7-8.1l-8.8,2.4-1-3.8,6.7-1.8a76.6,76.6,0,0,0-9.6-8.2h20.5l2.7,4.4,7.1-2,1,3.8-5.9,1.6,5.3,8.6,6.6-1.8,1.1,3.8-5.5,1.5,5.3,8.6,6.3-1.8,1.1,3.8-5.2,1.4,5.7,9.2,5.4-1.5,1.1,3.8-4.3,1.2,6.8,11L487.2,235a109.2,109.2,0,0,0-4.2-12.2Z" fill="#001689"/><path d="M456.6,197.1l1.1,3.8,11.3-3.2c-.9-1.1-1.7-2.3-2.6-3.3Z" fill="#001689"/><polygon points="485.1 193.3 484 189.5 477.4 191.3 479.6 194.8 485.1 193.3" fill="#001689"/><path d="M477.4,191.3l-11,3.1c.9,1,1.7,2.2,2.6,3.3l10.6-2.9Z" fill="#001689"/><path d="M463.8,209.2l1.1,3.8,11.8-3.3c-.6-1.2-1.3-2.3-2-3.5Z" fill="#001689"/><polygon points="492.3 205.4 491.2 201.6 484.9 203.4 487.1 206.8 492.3 205.4" fill="#001689"/><path d="M484.9,203.4l-10.2,2.8c.7,1.2,1.4,2.3,2,3.5l10.4-2.9Z" fill="#001689"/><path d="M470.8,222.2l1.1,3.8,11.1-3.2-1.5-3.6Z" fill="#001689"/><polygon points="499.3 218.3 498.2 214.5 492.8 216 495 219.5 499.3 218.3" fill="#001689"/><path d="M492.8,216l-11.3,3.2,1.5,3.6,12-3.3Z" fill="#001689"/><path d="M698.8,160.6l7,.3-.2,3.9-9.1-.3Z" fill="none" stroke="#001689" stroke-miterlimit="10" stroke-width="1.85"/><polygon points="677.2 163.8 677.3 159.8 684.6 160.1 683.3 164 677.2 163.8" fill="#001689"/><path d="M712.4,240.2l21.4,9.4,19.3-66.9S715.8,186.2,712.4,240.2Z" fill="#fcfcfc"/><path d="M662.4,219.5l14.4,5s-4.9-49.6,10.2-90.3l-20.6,14.7Z" fill="#fcfcfc"/><rect x="659.6" y="206.7" width="21.4" height="4.49" transform="translate(61.3 -140.4) rotate(12.5)" fill="#001689"/><rect x="663" y="150.6" width="21.4" height="4.49" transform="translate(49.2 -142.5) rotate(12.5)" fill="#001689"/><rect x="658.4" y="167.7" width="21.4" height="4.49" transform="translate(52.8 -141.1) rotate(12.5)" fill="#001689"/><rect x="659.6" y="186.3" width="21.4" height="4.49" transform="translate(56.9 -140.9) rotate(12.5)" fill="#001689"/></svg>