<svg height="800" viewBox="0 0 1200 800" width="1200" xmlns="http://www.w3.org/2000/svg"><path d="m275.2 402.9 120 13.1-45.1 45.8 42.3 63.1-103.3 65.2-71.5-122.1z" fill="#f5333f"/><path d="m788 422 131-51.8 82.6 109.4-134.6 187.3-73.7-133.3 46-47.6z" fill="#f5333f"/><path d="m778.6 544 30.7 56.8s-60.4 55.4 11.9 104l-85.3 47.3h-167.7s64.8-76.4 127.5-35l65.2-99.4-5.5-29.5s-78.9 12.9-88.6-23.2z" fill="none" stroke="#001689" stroke-miterlimit="10" stroke-width="11.08"/><path d="m783.4 655.1-64.6 65.4s-22.4 25.8 17.1 31.6l85.3-47.3s-38.5-33.2-34.8-49a5.3 5.3 0 0 0 .1-2.5c-.3-.6-1.1-.4-3.1 1.8z" fill="#001689"/><path d="m391.4 544-28.6 18.1s30.9 36.6-3.7 74.1c-8.8 9.5-21.5 14.8-40.9 23.7l53.4 92.2h173.7s-40.8-58.2-113.8-40.6l-37-102.8 10.4-32.1s56.2 26.7 79-14.9z" fill="none" stroke="#001689" stroke-miterlimit="10" stroke-width="11.08"/><path d="m372.9 623 32.9 91.1s5.3 26.6-31.9 33.7l-56-88.4s42-19.5 44.8-35.4c.2-1.3 8.2-6.8 10.2-1z" fill="#001689"/><circle cx="308.1" cy="596.7" fill="#fff" r="61.7"/><circle cx="852.6" cy="650.6" fill="#fff" r="61.7"/><circle cx="308.1" cy="596.7" fill="none" r="44.7" stroke="#001689" stroke-miterlimit="10" stroke-width="14.78"/><circle cx="308.1" cy="596.7" fill="none" r="16.3" stroke="#001689" stroke-miterlimit="10" stroke-width="5.4"/><circle cx="325.7" cy="617.7" fill="#001689" r="5.3"/><circle cx="326.2" cy="575.1" fill="#001689" r="5.3"/><circle cx="288.4" cy="617.7" fill="#001689" r="5.3"/><circle cx="288.9" cy="575.1" fill="#001689" r="5.3"/><circle cx="852.6" cy="650.6" fill="none" r="44.7" stroke="#001689" stroke-miterlimit="10" stroke-width="14.78"/><circle cx="852.6" cy="650.6" fill="none" r="16.3" stroke="#001689" stroke-miterlimit="10" stroke-width="5.4"/><circle cx="870.2" cy="671.6" fill="#001689" r="5.3"/><circle cx="870.7" cy="628.9" fill="#001689" r="5.3"/><circle cx="832.9" cy="671.6" fill="#001689" r="5.3"/><circle cx="833.4" cy="628.9" fill="#001689" r="5.3"/><path d="m426.6 550.8c37.8-72.7 128.3-79.8 154.5-79.8 43.5 0 113.6 9.1 148.4 81" fill="none" stroke="#001689" stroke-miterlimit="10" stroke-width="16.68"/><path d="m555.9 479.6s12.5 30.2-2 34.4l-36.4 5.7 39 15.1s55.1-82.2 43.9-5.2l49.7-4.2-64 33.3s7.8 16.4 6.8 19.5l-32.8-11.2s-31.7 31.8 5.2 29.7l-29.6 15.7s7.4 52.2-14.6 5.3c0 0-23.2-5.3-32.4-9.5a4.4 4.4 0 0 0 -5.8 2.1c-5.3 11.3-16.2 41.7 7.5 61.3l17.2-12 16.6 2.6-15.1 12s68.2-27.1 36.2 43.7l-64.3-18.8-11.4-32.8s-19.8-34.3-34.8-37.4c-9.4-1.9 0-11.2 0-11.2s2.3-32-8.2-30.9" fill="none" stroke="#001689" stroke-miterlimit="10" stroke-width="5.54"/><path d="m467.5 486-40.9-60.3 278.4 30.9 55.5-17.7-19 86" fill="none" stroke="#001689" stroke-miterlimit="10" stroke-width="14.78"/><path d="m691 503.3 13-46.4" fill="none" stroke="#001689" stroke-miterlimit="10" stroke-width="14.78"/><path d="m567 172.9 20.3 79.2s-35.5-2.8-49-11.2l-40-64s42.3 17.5 68.7-4z" fill="none" stroke="#001689" stroke-miterlimit="10" stroke-width="10.59"/><path d="m576.7 170.4 20.4 79.2s29.8-19.6 37.5-33.5l4.2-75.4s-22 36.6-62.1 29.7z" fill="none" stroke="#001689" stroke-miterlimit="10" stroke-width="10.59"/><path d="m641.3 235c-13.1 14.2-45.5 37.1-45.5 37.1h-.3s-5.9-.8-14.2-2.2l-5.7 154.4 129.9 14.2 63.9-21.2 8.6-123zm46.1 155.3-74-7.9 2.8-75 81.3 15.7z" fill="#f5333f"/><path d="m521.6 244-115.6 34.7 1.1 127.2 155.5 17 5.7-155.4c-14.5-2.8-31-6.9-38.7-11.7zm.1 130.4-71.2-7.8-.5-58.2 74.3-5.1z" fill="#f5333f"/><path d="m559.2 157.1-57.1-.9s33 30.8 57.1.9z" fill="none" stroke="#001689" stroke-miterlimit="10" stroke-width="5.38"/><path d="m576.9 152.6 52.1-31.3s-9.8 45.2-52.1 31.3z" fill="none" stroke="#001689" stroke-miterlimit="10" stroke-width="5.38"/><path d="m565.7 147.2 20.2-40.9-31.5-68.2-36.2 11.9 9.2 75.6z" fill="none" stroke="#001689" stroke-miterlimit="10" stroke-width="5.85"/><path d="m521.4 71.1 40.4-13.3" fill="none" stroke="#001689" stroke-miterlimit="10" stroke-width="5.85"/><path d="m525 100.6 50.3-16.6" fill="none" stroke="#001689" stroke-miterlimit="10" stroke-width="5.85"/><path d="m529.8 127 55.3-18.3" fill="none" stroke="#001689" stroke-miterlimit="10" stroke-width="5.85"/><path d="m573.1 56.9 26.5 49.9-16.2 32.1 79-50.1-20.8-21.3-30.6 3.1-17.6-13.9z" fill="#001689"/><path d="m511.9 74.1 4.3 56.4 30.8 18.4-92.5-.1 4.9-31 27.8-11.8 7.4-21.2z" fill="#001689"/><path d="m711 5.2 36 45.1-3.1 89.5 24.3 33.1-27.6 90.3-88.9-37.4 4.4-85.7 39.5-25.3z" fill="#001689"/><path d="m354.2 88.1 14.6 38.9-26.4 81.7 51.2 70.3 1.6 124.6-119.3-11.8-38.2-152.5z" fill="#f5333f"/><path d="m781.9 414.1 133.7-52.7 24.5-138.5-144.4-162.8-7.7 40.5 45.4 94.6-44.3 100z" fill="#f5333f"/><g fill="#001689"><path d="m456.3 183.1-6.7 1.8 1 3.8 8.8-2.4z"/><path d="m478 181.1-1-3.8-7.1 2 2.2 3.4z"/><path d="m469.9 179.3-13.6 3.8 3.1 3.2 12.7-3.6z"/><path d="m475.6 167.5-36.2-6.3-46.6-120.8-25.4 44.4 24.3 88.1-12.8 36.5 37.1 57.5 100.7-31.9zm-54.9 89.5-32.1-47.6c14.9-13.3 54.4 40.9 54.4 40.9zm51.2-31-1.1-3.8 10.7-3c-1.5-3.3-3.1-6.5-4.8-9.5l-11.8 3.3-1.1-3.8 10.9-3c-1.9-3-3.8-5.9-5.7-8.5l-11.3 3.2-1.1-3.8 9.8-2.7a85.3 85.3 0 0 0 -7-8.1l-8.8 2.4-1-3.8 6.7-1.8a76.6 76.6 0 0 0 -9.6-8.2h20.5l2.7 4.4 7.1-2 1 3.8-5.9 1.6 5.3 8.6 6.6-1.8 1.1 3.8-5.5 1.5 5.3 8.6 6.3-1.8 1.1 3.8-5.2 1.4 5.7 9.2 5.4-1.5 1.1 3.8-4.3 1.2 6.8 11-14.6 4.5a109.2 109.2 0 0 0 -4.2-12.2z"/><path d="m456.6 197.1 1.1 3.8 11.3-3.2c-.9-1.1-1.7-2.3-2.6-3.3z"/><path d="m485.1 193.3-1.1-3.8-6.6 1.8 2.2 3.5z"/><path d="m477.4 191.3-11 3.1c.9 1 1.7 2.2 2.6 3.3l10.6-2.9z"/><path d="m463.8 209.2 1.1 3.8 11.8-3.3c-.6-1.2-1.3-2.3-2-3.5z"/><path d="m492.3 205.4-1.1-3.8-6.3 1.8 2.2 3.4z"/><path d="m484.9 203.4-10.2 2.8c.7 1.2 1.4 2.3 2 3.5l10.4-2.9z"/><path d="m470.8 222.2 1.1 3.8 11.1-3.2-1.5-3.6z"/><path d="m499.3 218.3-1.1-3.8-5.4 1.5 2.2 3.5z"/><path d="m492.8 216-11.3 3.2 1.5 3.6 12-3.3z"/></g><path d="m698.8 160.6 7 .3-.2 3.9-9.1-.3z" fill="none" stroke="#001689" stroke-miterlimit="10" stroke-width="1.85"/><path d="m677.2 163.8.1-4 7.3.3-1.3 3.9z" fill="#001689"/><path d="m712.4 240.2 21.4 9.4 19.3-66.9s-37.3 3.5-40.7 57.5z" fill="#fcfcfc"/><path d="m662.4 219.5 14.4 5s-4.9-49.6 10.2-90.3l-20.6 14.7z" fill="#fcfcfc"/><path d="m659.6 206.7h21.4v4.49h-21.4z" fill="#001689" transform="matrix(.97629601 .21643961 -.21643961 .97629601 61.3 -140.4)"/><path d="m663 150.6h21.4v4.49h-21.4z" fill="#001689" transform="matrix(.97629601 .21643961 -.21643961 .97629601 49.2 -142.5)"/><path d="m658.4 167.7h21.4v4.49h-21.4z" fill="#001689" transform="matrix(.97629601 .21643961 -.21643961 .97629601 52.8 -141.1)"/><path d="m659.6 186.3h21.4v4.49h-21.4z" fill="#001689" transform="matrix(.97629601 .21643961 -.21643961 .97629601 56.9 -140.9)"/></svg>