<svg xmlns="http://www.w3.org/2000/svg" id="Layer_1" viewBox="0 0 85 85" width="85" height="85"><style>.st0{display:none;fill:#5a3129}.st1{fill:#fff}</style><g id="Square_Grey"><g id="Instagram"><path id="back" d="M0 0h85v85H0z" class="st0"/><path d="M42.5 23c6.3 0 7.1 0 9.6.1 1.5 0 3 .3 4.4.8 2.1.8 3.7 2.4 4.5 4.5.5 1.4.8 2.9.8 4.4.1 2.5.1 3.3.1 9.6s0 7.1-.1 9.6c0 1.5-.3 3-.8 4.4-.8 2.1-2.4 3.7-4.5 4.5-1.4.5-2.9.8-4.4.8-2.5.3-3.2.3-9.6.3s-7.1 0-9.6-.1c-1.5 0-3-.3-4.4-.8-2-.8-3.7-2.5-4.5-4.5-.5-1.4-.8-2.9-.8-4.4-.2-2.6-.2-3.4-.2-9.7s0-7.1.1-9.6c0-1.5.3-3 .9-4.4.8-2 2.4-3.7 4.5-4.5 1.4-.5 2.9-.8 4.4-.8 2.5-.2 3.3-.2 9.6-.2m0-4.3c-6.5 0-7.3 0-9.8.1-2 0-3.9.4-5.8 1.1-3.2 1.2-5.8 3.8-7 7-.7 1.9-1.1 3.8-1.1 5.8-.1 2.5-.1 3.3-.1 9.8s0 7.3.1 9.8c.1 2 .5 3.9 1.2 5.7 1.2 3.2 3.8 5.8 7 7 1.9.7 3.8 1.1 5.8 1.1 2.5.1 3.3.1 9.8.1s7.3 0 9.8-.1c2 0 3.9-.4 5.8-1.1 3.2-1.2 5.8-3.8 7-7 .7-1.8 1.1-3.8 1.1-5.8.1-2.5.1-3.3.1-9.8s0-7.3-.1-9.8c0-2-.4-3.9-1.1-5.8-1.2-3.2-3.8-5.8-7-7-1.8-.7-3.8-1.1-5.8-1.1h-9.9z" class="st1"/><path d="M42.5 30.3c-6.8 0-12.2 5.5-12.2 12.2s5.5 12.2 12.2 12.2 12.2-5.5 12.2-12.2-5.4-12.2-12.2-12.2zm0 20.1c-4.4 0-7.9-3.5-7.9-7.9s3.5-7.9 7.9-7.9 7.9 3.5 7.9 7.9-3.5 7.9-7.9 7.9z" class="st1"/><circle cx="55.2" cy="29.8" r="2.9" class="st1"/></g></g></svg>