<svg height="800" viewBox="0 0 1200 800" width="1200" xmlns="http://www.w3.org/2000/svg"><path d="m2 2h1196v796h-1196z" fill="#e2e2e2"/><path d="m575.6 494.2a208.4 208.4 0 0 1 -96.2-175.6c0-115.2 93.5-208.6 208.6-208.6s208.5 93.5 208.5 208.6a208.5 208.5 0 0 1 -96.1 175.6c84 54.9 144.7 169.6 155.6 305.8h-536c10.9-136.2 71.7-250.9 155.6-305.8z" fill="#999"/><path d="m512.1 150a168.6 168.6 0 0 1 147.2 250.6 170.4 170.4 0 0 1 -56.4 60 40 40 0 0 0 -.3 67.1c66 43.2 114.7 130 132.1 232.3h-445.4c17.4-102.3 66.2-189 132.3-232.3a40 40 0 0 0 -.3-67.1 170 170 0 0 1 -56.4-59.9 168.6 168.6 0 0 1 147.2-250.7m0-40c-115.2 0-208.6 93.5-208.6 208.6a208.4 208.4 0 0 0 96.2 175.6c-84 54.9-144.8 169.6-155.7 305.8h536c-10.9-136.2-71.6-250.9-155.5-305.8a208.5 208.5 0 0 0 96.1-175.6c0-115.2-93.3-208.6-208.5-208.6z" fill="#999"/><path d="m1196 4v792h-1192v-792zm4-4h-1200v800h1200z" fill="#666"/></svg>