<svg xmlns="http://www.w3.org/2000/svg" id="Layer_1" viewBox="0 0 85 85" width="85" height="85"><style>.st0{display:none;fill:#929292}.st1{fill:#fff}</style><g id="Circle_Grey"><g id="Twitter"><circle id="back" cx="42.5" cy="42.5" r="42.5" class="st0"/><path id="Twitter-2" d="M82 18c-3 1.3-6.1 2.2-9.3 2.6 3.4-2 5.9-5.2 7.2-9-3.2 1.9-6.7 3.2-10.3 3.9-6.1-6.5-16.4-6.8-22.9-.7-3.3 3.1-5.1 7.3-5.1 11.8 0 1.2.1 2.5.4 3.7-13-.6-25.2-6.8-33.5-16.9-4.3 7.4-2.1 16.8 5 21.6-2.6-.1-5.1-.8-7.4-2v.2c0 7.7 5.5 14.4 13 15.9-2.4.6-4.9.7-7.3.3C13.9 56 20 60.5 26.9 60.6c-5.7 4.5-12.8 6.9-20.1 6.9-1.3 0-2.6-.1-3.9-.2 7.4 4.8 16.1 7.3 24.9 7.3 30 0 46.2-24.7 46.2-46.1v-2.1c3.2-2.3 5.9-5.2 8-8.4z" class="st1"/></g></g></svg>